<?xml version="1.0" encoding="UTF-8" standalone="no"?>
<!-- Created with Inkscape (http://www.inkscape.org/) -->

<svg
   xmlns:dc="http://purl.org/dc/elements/1.1/"
   xmlns:cc="http://creativecommons.org/ns#"
   xmlns:rdf="http://www.w3.org/1999/02/22-rdf-syntax-ns#"
   xmlns:svg="http://www.w3.org/2000/svg"
   xmlns="http://www.w3.org/2000/svg"
   xmlns:sodipodi="http://sodipodi.sourceforge.net/DTD/sodipodi-0.dtd"
   xmlns:inkscape="http://www.inkscape.org/namespaces/inkscape"
   width="1000"
   height="358.26099"
   viewBox="0 0 264.58333 94.789889"
   version="1.1"
   id="svg35288"
   sodipodi:docname="Reddit_logo.svg"
   inkscape:version="0.92.2 (5c3e80d, 2017-08-06)">
  <defs
     id="defs35282">
    <clipPath
       id="clipPath20">
      <path
         id="path22"
         d="M 0,792 H 612 V 0 H 0 Z"
         inkscape:connector-curvature="0" />
    </clipPath>
  </defs>
  <sodipodi:namedview
     id="base"
     pagecolor="#ffffff"
     bordercolor="#666666"
     borderopacity="1.0"
     inkscape:pageopacity="0.0"
     inkscape:pageshadow="2"
     inkscape:zoom="0.7"
     inkscape:cx="585.83825"
     inkscape:cy="140.04489"
     inkscape:document-units="px"
     inkscape:current-layer="layer1"
     showgrid="false"
     units="px"
     inkscape:window-width="1366"
     inkscape:window-height="705"
     inkscape:window-x="-8"
     inkscape:window-y="-8"
     inkscape:window-maximized="1" />
  <metadata
     id="metadata35285">
    <rdf:RDF>
      <cc:Work
         rdf:about="">
        <dc:format>image/svg+xml</dc:format>
        <dc:type
           rdf:resource="http://purl.org/dc/dcmitype/StillImage" />
        <dc:title></dc:title>
      </cc:Work>
    </rdf:RDF>
  </metadata>
  <g
     inkscape:label="Layer 1"
     inkscape:groupmode="layer"
     id="layer1"
     transform="translate(0,-202.2101)">
    <path
       style="fill:#ffffff;fill-opacity:1;fill-rule:nonzero;stroke:none;stroke-width:2.38588405"
       id="path26"
       d="m 44.886353,257.05 c 5.8144,0 10.526521,5.68556 10.526521,12.70245 0,7.01927 -4.712121,12.70244 -10.526521,12.70244 -5.8144,0 -10.521749,-5.68317 -10.521749,-12.70244 0,-7.01689 4.707349,-12.70245 10.521749,-12.70245"
       inkscape:connector-curvature="0" />
    <path
       style="fill:none;stroke:#000000;stroke-width:2.62447262;stroke-linecap:butt;stroke-linejoin:miter;stroke-miterlimit:4;stroke-dasharray:none;stroke-opacity:1"
       id="path30"
       d="m 44.886353,257.05 c 5.8144,0 10.526521,5.68556 10.526521,12.70245 0,7.01927 -4.712121,12.70244 -10.526521,12.70244 -5.8144,0 -10.521749,-5.68317 -10.521749,-12.70244 0,-7.01689 4.707349,-12.70245 10.521749,-12.70245 z"
       inkscape:connector-curvature="0" />
    <path
       style="fill:#ffffff;fill-opacity:1;fill-rule:nonzero;stroke:none;stroke-width:2.38588405"
       id="path34"
       d="m 28.324023,295.68081 c 0.150311,-0.47002 0.257675,-0.95674 0.257675,-1.46732 0,-3.24719 -3.247188,-5.87882 -7.253087,-5.87882 -4.0059,0 -7.250702,2.63163 -7.250702,5.87882 0,0.51058 0.104979,0.9973 0.257676,1.46732 z"
       inkscape:connector-curvature="0" />
    <path
       style="fill:none;stroke:#000000;stroke-width:2.62447262;stroke-linecap:round;stroke-linejoin:round;stroke-miterlimit:4;stroke-dasharray:none;stroke-opacity:1"
       id="path38"
       d="m 28.324023,295.68081 c 0.150311,-0.47002 0.257675,-0.95674 0.257675,-1.46732 0,-3.24719 -3.247188,-5.87882 -7.253087,-5.87882 -4.0059,0 -7.250702,2.63163 -7.250702,5.87882 0,0.51058 0.104979,0.9973 0.257676,1.46732 z"
       inkscape:connector-curvature="0" />
    <path
       style="fill:#ffffff;fill-opacity:1;fill-rule:nonzero;stroke:none;stroke-width:2.38588405"
       id="path42"
       d="m 53.722952,295.68081 c 0.150311,-0.47002 0.25529,-0.95674 0.25529,-1.46732 0,-3.24719 -3.247189,-5.87882 -7.253088,-5.87882 -4.005899,0 -7.250702,2.63163 -7.250702,5.87882 0,0.51058 0.104979,0.9973 0.25529,1.46732 z"
       inkscape:connector-curvature="0" />
    <path
       style="fill:none;stroke:#000000;stroke-width:2.62447262;stroke-linecap:round;stroke-linejoin:round;stroke-miterlimit:4;stroke-dasharray:none;stroke-opacity:1"
       id="path46"
       d="m 53.722952,295.68081 c 0.150311,-0.47002 0.25529,-0.95674 0.25529,-1.46732 0,-3.24719 -3.247189,-5.87882 -7.253088,-5.87882 -4.005899,0 -7.250702,2.63163 -7.250702,5.87882 0,0.51058 0.104979,0.9973 0.25529,1.46732 z"
       inkscape:connector-curvature="0" />
    <path
       style="fill:#ffffff;fill-opacity:1;fill-rule:nonzero;stroke:none;stroke-width:2.38588405"
       id="path50"
       d="m 14.205553,230.189 c 0,3.56212 -2.88692,6.44666 -6.4490447,6.44666 -3.5597391,0 -6.444273,-2.88454 -6.444273,-6.44666 0,-3.56212 2.8845339,-6.44904 6.444273,-6.44904 3.5621247,0 6.4490447,2.88692 6.4490447,6.44904"
       inkscape:connector-curvature="0" />
    <path
       style="fill:none;stroke:#000000;stroke-width:2.62447262;stroke-linecap:butt;stroke-linejoin:miter;stroke-miterlimit:4;stroke-dasharray:none;stroke-opacity:1"
       id="path54"
       d="m 14.205553,230.189 c 0,3.56212 -2.88692,6.44666 -6.4490447,6.44666 -3.5597391,0 -6.444273,-2.88454 -6.444273,-6.44666 0,-3.56212 2.8845339,-6.44904 6.444273,-6.44904 3.5621247,0 6.4490447,2.88692 6.4490447,6.44904 z"
       inkscape:connector-curvature="0" />
    <path
       style="fill:#ffffff;fill-opacity:1;fill-rule:nonzero;stroke:none;stroke-width:2.38588405"
       id="path58"
       d="m 66.939557,230.189 c 0,3.56212 -2.88692,6.44666 -6.449045,6.44666 -3.559739,0 -6.444273,-2.88454 -6.444273,-6.44666 0,-3.56212 2.884534,-6.44904 6.444273,-6.44904 3.562125,0 6.449045,2.88692 6.449045,6.44904"
       inkscape:connector-curvature="0" />
    <path
       style="fill:none;stroke:#000000;stroke-width:2.62447262;stroke-linecap:butt;stroke-linejoin:miter;stroke-miterlimit:4;stroke-dasharray:none;stroke-opacity:1"
       id="path62"
       d="m 66.939557,230.189 c 0,3.56212 -2.88692,6.44666 -6.449045,6.44666 -3.559739,0 -6.444273,-2.88454 -6.444273,-6.44666 0,-3.56212 2.884534,-6.44904 6.444273,-6.44904 3.562125,0 6.449045,2.88692 6.449045,6.44904 z"
       inkscape:connector-curvature="0" />
    <path
       style="fill:none;stroke:#000000;stroke-width:2.62447262;stroke-linecap:round;stroke-linejoin:round;stroke-miterlimit:4;stroke-dasharray:none;stroke-opacity:1"
       id="path66"
       d="m 51.99748,207.56152 -12.893318,-3.03484 -4.738365,14.97858"
       inkscape:connector-curvature="0" />
    <path
       style="fill:#ffffff;fill-opacity:1;fill-rule:nonzero;stroke:none;stroke-width:2.38588405"
       id="path70"
       d="m 23.178148,257.05 c 5.8144,0 10.524135,5.68556 10.524135,12.70245 0,7.01927 -4.709735,12.70244 -10.524135,12.70244 -5.812014,0 -10.521749,-5.68317 -10.521749,-12.70244 0,-7.01689 4.709735,-12.70245 10.521749,-12.70245"
       inkscape:connector-curvature="0" />
    <path
       style="fill:none;stroke:#000000;stroke-width:2.62447262;stroke-linecap:butt;stroke-linejoin:miter;stroke-miterlimit:4;stroke-dasharray:none;stroke-opacity:1"
       id="path74"
       d="m 23.178148,257.05 c 5.8144,0 10.524135,5.68556 10.524135,12.70245 0,7.01927 -4.709735,12.70244 -10.524135,12.70244 -5.812014,0 -10.521749,-5.68317 -10.521749,-12.70244 0,-7.01689 4.709735,-12.70245 10.521749,-12.70245 z"
       inkscape:connector-curvature="0" />
    <path
       style="fill:#ffffff;fill-opacity:1;fill-rule:nonzero;stroke:none;stroke-width:2.38588405"
       id="path78"
       d="m 62.341481,208.60415 c 0,2.8058 -2.276133,5.08193 -5.079547,5.08193 -2.810572,0 -5.084319,-2.27613 -5.084319,-5.08193 0,-2.80819 2.273747,-5.08193 5.084319,-5.08193 2.803414,0 5.079547,2.27374 5.079547,5.08193"
       inkscape:connector-curvature="0" />
    <path
       style="fill:none;stroke:#000000;stroke-width:2.62447262;stroke-linecap:butt;stroke-linejoin:miter;stroke-miterlimit:4;stroke-dasharray:none;stroke-opacity:1"
       id="path82"
       d="m 62.341481,208.60415 c 0,2.8058 -2.276133,5.08193 -5.079547,5.08193 -2.810572,0 -5.084319,-2.27613 -5.084319,-5.08193 0,-2.80819 2.273747,-5.08193 5.084319,-5.08193 2.803414,0 5.079547,2.27374 5.079547,5.08193 z"
       inkscape:connector-curvature="0" />
    <path
       style="fill:#ffffff;fill-opacity:1;fill-rule:nonzero;stroke:none;stroke-width:2.38588405"
       id="path86"
       d="m 30.41859,295.68772 h 7.133793 c 6.336909,-3.29729 11.032329,-15.12651 11.032329,-29.25332 0,-16.67733 -6.537323,-30.19575 -14.599225,-30.19575 -8.064289,0 -14.599225,13.51842 -14.599225,30.19575 0,14.12681 4.69542,25.95603 11.032328,29.25332"
       inkscape:connector-curvature="0" />
    <path
       style="fill:none;stroke:#000000;stroke-width:2.62447262;stroke-linecap:butt;stroke-linejoin:miter;stroke-miterlimit:4;stroke-dasharray:none;stroke-opacity:1"
       id="path90"
       d="m 30.41859,295.68772 h 7.133793 c 6.336909,-3.29729 11.032329,-15.12651 11.032329,-29.25332 0,-16.67733 -6.537323,-30.19575 -14.599225,-30.19575 -8.064289,0 -14.599225,13.51842 -14.599225,30.19575 0,14.12681 4.69542,25.95603 11.032328,29.25332 z"
       inkscape:connector-curvature="0" />
    <path
       style="fill:#ffffff;fill-opacity:1;fill-rule:nonzero;stroke:none;stroke-width:2.38588405"
       id="path94"
       d="m 63.184891,239.05566 c 0,10.52413 -13.072259,19.05367 -29.200835,19.05367 -16.126191,0 -29.1984501,-8.52954 -29.1984501,-19.05367 0,-10.52413 13.0722591,-19.05606 29.1984501,-19.05606 16.128576,0 29.200835,8.53193 29.200835,19.05606"
       inkscape:connector-curvature="0" />
    <path
       style="fill:none;stroke:#000000;stroke-width:2.62447262;stroke-linecap:butt;stroke-linejoin:miter;stroke-miterlimit:4;stroke-dasharray:none;stroke-opacity:1"
       id="path98"
       d="m 63.184891,239.05566 c 0,10.52413 -13.072259,19.05367 -29.200835,19.05367 -16.126191,0 -29.1984501,-8.52954 -29.1984501,-19.05367 0,-10.52413 13.0722591,-19.05606 29.1984501,-19.05606 16.128576,0 29.200835,8.53193 29.200835,19.05606 z"
       inkscape:connector-curvature="0" />
    <path
       style="fill:none;stroke:#000000;stroke-width:2.62447262;stroke-linecap:round;stroke-linejoin:round;stroke-miterlimit:4;stroke-dasharray:none;stroke-opacity:1"
       id="path102"
       d="M 26.305087,295.68081 H 42.042379"
       inkscape:connector-curvature="0" />
    <path
       style="fill:#000000;fill-opacity:1;fill-rule:nonzero;stroke:none;stroke-width:2.38588405"
       id="path106"
       d="m 81.486769,257.79559 c 0,-1.05933 0.317323,-1.90155 0.95674,-2.52665 0.639416,-0.61795 1.412443,-0.93288 2.323851,-0.93288 0.928109,0 1.720222,0.30539 2.369183,0.91379 0.653732,0.61556 0.980598,1.46016 0.980598,2.54574 v 3.43806 h 0.150311 c 1.004457,-1.75601 2.321465,-3.34262 3.960567,-4.76223 1.639103,-1.41482 3.356939,-2.16399 5.151124,-2.23795 1.006843,0 1.894392,0.33402 2.672187,0.99252 0.77542,0.66089 1.16909,1.47925 1.16909,2.46224 0,1.14999 -0.39845,1.99221 -1.19533,2.5338 -0.796887,0.5416 -1.956427,1.00685 -3.476235,1.40052 -1.517422,0.39605 -2.502792,0.71099 -2.953724,0.96151 -3.652789,1.98028 -5.47799,5.37062 -5.47799,10.16864 v 19.74557 c 0,1.09513 -0.307779,1.9445 -0.923337,2.54574 -0.615558,0.60363 -1.376655,0.90425 -2.280905,0.90425 -0.95674,0 -1.767941,-0.31493 -2.431216,-0.94719 -0.665662,-0.63703 -0.994914,-1.52697 -0.994914,-2.66026 z"
       inkscape:connector-curvature="0" />
    <path
       style="fill:none;stroke:#000000;stroke-width:1.42675865;stroke-linecap:butt;stroke-linejoin:miter;stroke-miterlimit:4;stroke-dasharray:none;stroke-opacity:1"
       id="path110"
       d="m 81.486769,257.79559 c 0,-1.05933 0.317323,-1.90155 0.95674,-2.52665 0.639416,-0.61795 1.412443,-0.93288 2.323851,-0.93288 0.928109,0 1.720222,0.30539 2.369183,0.91379 0.653732,0.61556 0.980598,1.46016 0.980598,2.54574 v 3.43806 h 0.150311 c 1.004457,-1.75601 2.321465,-3.34262 3.960567,-4.76223 1.639103,-1.41482 3.356939,-2.16399 5.151124,-2.23795 1.006843,0 1.894392,0.33402 2.672187,0.99252 0.77542,0.66089 1.16909,1.47925 1.16909,2.46224 0,1.14999 -0.39845,1.99221 -1.19533,2.5338 -0.796887,0.5416 -1.956427,1.00685 -3.476235,1.40052 -1.517422,0.39605 -2.502792,0.71099 -2.953724,0.96151 -3.652789,1.98028 -5.47799,5.37062 -5.47799,10.16864 v 19.74557 c 0,1.09513 -0.307779,1.9445 -0.923337,2.54574 -0.615558,0.60363 -1.376655,0.90425 -2.280905,0.90425 -0.95674,0 -1.767941,-0.31493 -2.431216,-0.94719 -0.665662,-0.63703 -0.994914,-1.52697 -0.994914,-2.66026 z"
       inkscape:connector-curvature="0" />
    <path
       style="fill:#000000;fill-opacity:1;fill-rule:nonzero;stroke:none;stroke-width:2.38588405"
       id="path114"
       d="m 109.69221,272.59308 h 22.43685 c -0.0716,-3.74345 -1.06887,-6.74251 -2.98951,-9.02103 -1.92064,-2.27375 -4.54988,-3.45237 -7.8925,-3.52633 -3.40227,0 -6.13888,1.10466 -8.21699,3.29967 -2.07572,2.19979 -3.18754,5.28474 -3.33785,9.24769 m -6.78784,2.13298 c 0.15031,-3.48339 0.95197,-6.78307 2.39781,-9.91335 1.44823,-3.12073 3.51202,-5.64977 6.19376,-7.59427 2.67935,-1.94211 5.8311,-2.93463 9.45287,-2.98474 3.51441,0 6.63753,0.9472 9.36937,2.84398 2.72706,1.89677 4.8338,4.40672 6.31782,7.53223 1.4864,3.13028 2.22841,6.39417 2.22841,9.80599 0,2.18547 -1.24781,3.28059 -3.74345,3.28059 h -25.42875 c 0.0501,2.71036 0.62749,5.0032 1.73931,6.86896 1.10944,1.86576 2.59346,3.25911 4.45922,4.18484 1.86337,0.92333 3.92716,1.38381 6.19852,1.38381 3.97727,0 7.63245,-1.40529 10.95837,-4.22063 1.14522,-0.8279 1.98744,-1.23827 2.52426,-1.23827 0.74917,0 1.32894,0.27915 1.74886,0.83506 0.41753,0.55591 0.6251,1.23111 0.6251,2.01845 0,0.85177 -0.32925,1.67012 -0.98776,2.45508 -1.50072,1.59138 -3.62654,2.98235 -6.37746,4.1753 -2.75093,1.19294 -5.71181,1.78941 -8.88027,1.78941 -3.32115,0 -6.20807,-0.62272 -8.65837,-1.87769 -2.45269,-1.24782 -4.42581,-2.91555 -5.92415,-4.98173 -1.50072,-2.06856 -2.59107,-4.30652 -3.2782,-6.7091 -0.68475,-2.39543 -1.04741,-4.82426 -1.0832,-7.27934 0.0644,-0.12406 0.1026,-0.21711 0.12169,-0.2696 0.0167,-0.0596 0.0262,-0.0907 0.0262,-0.10498"
       inkscape:connector-curvature="0" />
    <path
       style="fill:none;stroke:#000000;stroke-width:1.42675865;stroke-linecap:butt;stroke-linejoin:miter;stroke-miterlimit:4;stroke-dasharray:none;stroke-opacity:1"
       id="path118"
       d="m 109.69221,272.59308 h 22.43685 c -0.0716,-3.74345 -1.06887,-6.74251 -2.98951,-9.02103 -1.92064,-2.27375 -4.54988,-3.45237 -7.8925,-3.52633 -3.40227,0 -6.13888,1.10466 -8.21699,3.29967 -2.07572,2.19979 -3.18754,5.28474 -3.33785,9.24769 z m -6.78784,2.13298 c 0.15031,-3.48339 0.95197,-6.78307 2.39781,-9.91335 1.44823,-3.12073 3.51202,-5.64977 6.19376,-7.59427 2.67935,-1.94211 5.8311,-2.93463 9.45287,-2.98474 3.51441,0 6.63753,0.9472 9.36937,2.84398 2.72706,1.89677 4.8338,4.40672 6.31782,7.53223 1.4864,3.13028 2.22841,6.39417 2.22841,9.80599 0,2.18547 -1.24781,3.28059 -3.74345,3.28059 h -25.42875 c 0.0501,2.71036 0.62749,5.0032 1.73931,6.86896 1.10944,1.86576 2.59346,3.25911 4.45922,4.18484 1.86337,0.92333 3.92716,1.38381 6.19852,1.38381 3.97727,0 7.63245,-1.40529 10.95837,-4.22063 1.14522,-0.8279 1.98744,-1.23827 2.52426,-1.23827 0.74917,0 1.32894,0.27915 1.74886,0.83506 0.41753,0.55591 0.6251,1.23111 0.6251,2.01845 0,0.85177 -0.32925,1.67012 -0.98776,2.45508 -1.50072,1.59138 -3.62654,2.98235 -6.37746,4.1753 -2.75093,1.19294 -5.71181,1.78941 -8.88027,1.78941 -3.32115,0 -6.20807,-0.62272 -8.65837,-1.87769 -2.45269,-1.24782 -4.42581,-2.91555 -5.92415,-4.98173 -1.50072,-2.06856 -2.59107,-4.30652 -3.2782,-6.7091 -0.68475,-2.39543 -1.04741,-4.82426 -1.0832,-7.27934 0.0644,-0.12406 0.1026,-0.21711 0.12169,-0.2696 0.0167,-0.0596 0.0262,-0.0907 0.0262,-0.10498 z"
       inkscape:connector-curvature="0" />
    <path
       style="fill:#000000;fill-opacity:1;fill-rule:nonzero;stroke:none;stroke-width:2.38588405"
       id="path122"
       d="m 150.19498,274.97205 c 0,4.13712 0.89232,7.66585 2.68173,10.58378 1.78226,2.91555 4.44968,4.4449 7.98794,4.57613 2.82012,0 5.10341,-0.7277 6.86181,-2.19502 1.74169,-1.46254 2.99428,-3.32353 3.73868,-5.57819 0.75394,-2.25705 1.15476,-4.66679 1.22396,-7.23639 0,-2.95611 -0.47718,-5.58297 -1.43869,-7.88296 -0.95436,-2.29761 -2.28807,-4.07509 -3.9892,-5.32291 -1.70591,-1.24543 -3.63132,-1.87053 -5.78338,-1.87053 -2.53858,0 -4.64293,0.75155 -6.32498,2.23319 -1.67967,1.49117 -2.91317,3.36648 -3.69574,5.62353 -0.7778,2.25466 -1.19771,4.6143 -1.26213,7.06937 m 21.72825,-15.24341 v -20.07722 c 0,-1.04979 0.32686,-1.87053 0.97821,-2.46939 0.65373,-0.60124 1.42676,-0.89948 2.30953,-0.89948 0.98537,0 1.80135,0.29824 2.45985,0.8971 0.65373,0.59885 0.98299,1.4697 0.98299,2.61492 v 52.69941 c 0,1.08558 -0.3388,1.9278 -1.01162,2.54097 -0.67043,0.61079 -1.48402,0.91379 -2.43122,0.91379 -0.84221,0 -1.6057,-0.303 -2.2809,-0.9114 -0.67043,-0.60841 -1.00684,-1.40529 -1.00684,-2.3835 v -2.19979 h -0.15509 c -0.72292,1.46732 -1.90393,2.72468 -3.55019,3.78401 -1.64388,1.05695 -3.86513,1.62479 -6.66378,1.71068 -3.59075,0 -6.74728,-0.87562 -9.45525,-2.63401 -2.71275,-1.75363 -4.81233,-4.19916 -6.31067,-7.34137 -1.48879,-3.13505 -2.26182,-6.69479 -2.32385,-10.68399 0,-2.85351 0.41514,-5.56627 1.2502,-8.14302 0.83745,-2.58153 2.01846,-4.83142 3.54066,-6.75921 1.52219,-1.92064 3.34978,-3.42851 5.4756,-4.51648 2.12821,-1.09035 4.4616,-1.63671 6.9978,-1.63671 4.57374,0 8.25993,1.83235 11.03948,5.49469 z"
       inkscape:connector-curvature="0" />
    <path
       style="fill:none;stroke:#000000;stroke-width:1.42675865;stroke-linecap:butt;stroke-linejoin:miter;stroke-miterlimit:4;stroke-dasharray:none;stroke-opacity:1"
       id="path126"
       d="m 150.19498,274.97205 c 0,4.13712 0.89232,7.66585 2.68173,10.58378 1.78226,2.91555 4.44968,4.4449 7.98794,4.57613 2.82012,0 5.10341,-0.7277 6.86181,-2.19502 1.74169,-1.46254 2.99428,-3.32353 3.73868,-5.57819 0.75394,-2.25705 1.15476,-4.66679 1.22396,-7.23639 0,-2.95611 -0.47718,-5.58297 -1.43869,-7.88296 -0.95436,-2.29761 -2.28807,-4.07509 -3.9892,-5.32291 -1.70591,-1.24543 -3.63132,-1.87053 -5.78338,-1.87053 -2.53858,0 -4.64293,0.75155 -6.32498,2.23319 -1.67967,1.49117 -2.91317,3.36648 -3.69574,5.62353 -0.7778,2.25466 -1.19771,4.6143 -1.26213,7.06937 z m 21.72825,-15.24341 v -20.07722 c 0,-1.04979 0.32686,-1.87053 0.97821,-2.46939 0.65373,-0.60124 1.42676,-0.89948 2.30953,-0.89948 0.98537,0 1.80135,0.29824 2.45985,0.8971 0.65373,0.59885 0.98299,1.4697 0.98299,2.61492 v 52.69941 c 0,1.08558 -0.3388,1.9278 -1.01162,2.54097 -0.67043,0.61079 -1.48402,0.91379 -2.43122,0.91379 -0.84221,0 -1.6057,-0.303 -2.2809,-0.9114 -0.67043,-0.60841 -1.00684,-1.40529 -1.00684,-2.3835 v -2.19979 h -0.15509 c -0.72292,1.46732 -1.90393,2.72468 -3.55019,3.78401 -1.64388,1.05695 -3.86513,1.62479 -6.66378,1.71068 -3.59075,0 -6.74728,-0.87562 -9.45525,-2.63401 -2.71275,-1.75363 -4.81233,-4.19916 -6.31067,-7.34137 -1.48879,-3.13505 -2.26182,-6.69479 -2.32385,-10.68399 0,-2.85351 0.41514,-5.56627 1.2502,-8.14302 0.83745,-2.58153 2.01846,-4.83142 3.54066,-6.75921 1.52219,-1.92064 3.34978,-3.42851 5.4756,-4.51648 2.12821,-1.09035 4.4616,-1.63671 6.9978,-1.63671 4.57374,0 8.25993,1.83235 11.03948,5.49469 z"
       inkscape:connector-curvature="0" />
    <path
       style="fill:#000000;fill-opacity:1;fill-rule:nonzero;stroke:none;stroke-width:2.38588405"
       id="path130"
       d="m 192.80783,274.97205 c 0,4.13712 0.88993,7.66585 2.67935,10.58378 1.78703,2.91555 4.44967,4.4449 7.99032,4.57613 2.82012,0 5.10818,-0.7277 6.85226,-2.19502 1.75363,-1.46254 3.00145,-3.32353 3.74823,-5.57819 0.74916,-2.25705 1.15715,-4.66679 1.22157,-7.23639 0,-2.95611 -0.47718,-5.58297 -1.43392,-7.88296 -0.95435,-2.29761 -2.28806,-4.07509 -3.99158,-5.32291 -1.70591,-1.24543 -3.6337,-1.87053 -5.78338,-1.87053 -2.53858,0 -4.64771,0.75155 -6.32737,2.23319 -1.68205,1.49117 -2.90839,3.36648 -3.69096,5.62353 -0.78257,2.25466 -1.20249,4.6143 -1.26452,7.06937 m 21.72109,-15.24341 v -20.07722 c 0,-1.04979 0.32925,-1.87053 0.98775,-2.46939 0.65374,-0.60124 1.41961,-0.89948 2.30477,-0.89948 0.98298,0 1.8085,0.29824 2.45985,0.8971 0.65611,0.59885 0.98059,1.4697 0.98059,2.61492 v 52.69941 c 0,1.08558 -0.33641,1.9278 -1.00684,2.54097 -0.67282,0.61079 -1.48879,0.91379 -2.4336,0.91379 -0.8446,0 -1.6057,-0.303 -2.27852,-0.9114 -0.67282,-0.60841 -1.014,-1.40529 -1.014,-2.3835 v -2.19979 h -0.14793 c -0.7253,1.46732 -1.90632,2.72468 -3.55019,3.78401 -1.64149,1.05695 -3.86275,1.62479 -6.66378,1.71068 -3.59314,0 -6.74489,-0.87562 -9.45764,-2.63401 -2.71514,-1.75363 -4.81471,-4.19916 -6.30589,-7.34137 -1.48879,-3.13505 -2.26659,-6.69479 -2.32624,-10.68399 0,-2.85351 0.41753,-5.56627 1.25259,-8.14302 0.83745,-2.58153 2.01369,-4.83142 3.53588,-6.75921 1.52458,-1.92064 3.34978,-3.42851 5.4756,-4.51648 2.12821,-1.09035 4.46161,-1.63671 6.99542,-1.63671 4.57612,0 8.25993,1.83235 11.04425,5.49469 z"
       inkscape:connector-curvature="0" />
    <path
       style="fill:none;stroke:#000000;stroke-width:1.42675865;stroke-linecap:butt;stroke-linejoin:miter;stroke-miterlimit:4;stroke-dasharray:none;stroke-opacity:1"
       id="path134"
       d="m 192.80783,274.97205 c 0,4.13712 0.88993,7.66585 2.67935,10.58378 1.78703,2.91555 4.44967,4.4449 7.99032,4.57613 2.82012,0 5.10818,-0.7277 6.85226,-2.19502 1.75363,-1.46254 3.00145,-3.32353 3.74823,-5.57819 0.74916,-2.25705 1.15715,-4.66679 1.22157,-7.23639 0,-2.95611 -0.47718,-5.58297 -1.43392,-7.88296 -0.95435,-2.29761 -2.28806,-4.07509 -3.99158,-5.32291 -1.70591,-1.24543 -3.6337,-1.87053 -5.78338,-1.87053 -2.53858,0 -4.64771,0.75155 -6.32737,2.23319 -1.68205,1.49117 -2.90839,3.36648 -3.69096,5.62353 -0.78257,2.25466 -1.20249,4.6143 -1.26452,7.06937 z m 21.72109,-15.24341 v -20.07722 c 0,-1.04979 0.32925,-1.87053 0.98775,-2.46939 0.65374,-0.60124 1.41961,-0.89948 2.30477,-0.89948 0.98298,0 1.8085,0.29824 2.45985,0.8971 0.65611,0.59885 0.98059,1.4697 0.98059,2.61492 v 52.69941 c 0,1.08558 -0.33641,1.9278 -1.00684,2.54097 -0.67282,0.61079 -1.48879,0.91379 -2.4336,0.91379 -0.8446,0 -1.6057,-0.303 -2.27852,-0.9114 -0.67282,-0.60841 -1.014,-1.40529 -1.014,-2.3835 v -2.19979 h -0.14793 c -0.7253,1.46732 -1.90632,2.72468 -3.55019,3.78401 -1.64149,1.05695 -3.86275,1.62479 -6.66378,1.71068 -3.59314,0 -6.74489,-0.87562 -9.45764,-2.63401 -2.71514,-1.75363 -4.81471,-4.19916 -6.30589,-7.34137 -1.48879,-3.13505 -2.26659,-6.69479 -2.32624,-10.68399 0,-2.85351 0.41753,-5.56627 1.25259,-8.14302 0.83745,-2.58153 2.01369,-4.83142 3.53588,-6.75921 1.52458,-1.92064 3.34978,-3.42851 5.4756,-4.51648 2.12821,-1.09035 4.46161,-1.63671 6.99542,-1.63671 4.57612,0 8.25993,1.83235 11.04425,5.49469 z"
       inkscape:connector-curvature="0" />
    <path
       style="fill:#000000;fill-opacity:1;fill-rule:nonzero;stroke:none;stroke-width:2.38588405"
       id="path138"
       d="m 251.02435,260.45633 h -2.97043 c -0.95435,0 -1.72022,-0.27199 -2.2976,-0.81359 -0.57261,-0.54159 -0.90425,-1.21441 -1.00446,-2.0113 0.19803,-1.9946 1.30031,-2.9919 3.30206,-2.9919 h 2.97043 v -9.09976 c 0,-0.99253 0.31971,-1.76555 0.95435,-2.3143 0.63703,-0.54399 1.41006,-0.81836 2.3334,-0.81836 0.97821,0 1.80134,0.27676 2.45984,0.83028 0.65612,0.55592 0.99015,1.37666 0.99015,2.46939 v 8.93275 h 2.96565 c 1.02354,0 1.80134,0.27677 2.33578,0.82313 0.53683,0.54876 0.80643,1.26691 0.80643,2.16877 0,0.76349 -0.2696,1.42199 -0.78496,1.98029 -0.52728,0.56068 -1.20248,0.8446 -2.03754,0.8446 h -3.28536 v 32.1808 c 0,1.02355 -0.3555,1.83236 -1.05695,2.42645 -0.69906,0.5917 -1.55321,0.88516 -2.54097,0.88516 -0.88277,0 -1.63433,-0.29346 -2.2308,-0.88516 -0.60124,-0.59409 -0.90902,-1.453 -0.90902,-2.57198 z"
       inkscape:connector-curvature="0" />
    <path
       style="fill:none;stroke:#000000;stroke-width:1.42675865;stroke-linecap:butt;stroke-linejoin:miter;stroke-miterlimit:4;stroke-dasharray:none;stroke-opacity:1"
       id="path142"
       d="m 251.02435,260.45633 h -2.97043 c -0.95435,0 -1.72022,-0.27199 -2.2976,-0.81359 -0.57261,-0.54159 -0.90425,-1.21441 -1.00446,-2.0113 0.19803,-1.9946 1.30031,-2.9919 3.30206,-2.9919 h 2.97043 v -9.09976 c 0,-0.99253 0.31971,-1.76555 0.95435,-2.3143 0.63703,-0.54399 1.41006,-0.81836 2.3334,-0.81836 0.97821,0 1.80134,0.27676 2.45984,0.83028 0.65612,0.55592 0.99015,1.37666 0.99015,2.46939 v 8.93275 h 2.96565 c 1.02354,0 1.80134,0.27677 2.33578,0.82313 0.53683,0.54876 0.80643,1.26691 0.80643,2.16877 0,0.76349 -0.2696,1.42199 -0.78496,1.98029 -0.52728,0.56068 -1.20248,0.8446 -2.03754,0.8446 h -3.28536 v 32.1808 c 0,1.02355 -0.3555,1.83236 -1.05695,2.42645 -0.69906,0.5917 -1.55321,0.88516 -2.54097,0.88516 -0.88277,0 -1.63433,-0.29346 -2.2308,-0.88516 -0.60124,-0.59409 -0.90902,-1.453 -0.90902,-2.57198 z"
       inkscape:connector-curvature="0" />
    <path
       style="color:#000000;font-style:normal;font-variant:normal;font-weight:normal;font-stretch:normal;font-size:medium;line-height:normal;font-family:sans-serif;font-variant-ligatures:normal;font-variant-position:normal;font-variant-caps:normal;font-variant-numeric:normal;font-variant-alternates:normal;font-feature-settings:normal;text-indent:0;text-align:start;text-decoration:none;text-decoration-line:none;text-decoration-style:solid;text-decoration-color:#000000;letter-spacing:normal;word-spacing:normal;text-transform:none;writing-mode:lr-tb;direction:ltr;text-orientation:mixed;dominant-baseline:auto;baseline-shift:baseline;text-anchor:start;white-space:normal;shape-padding:0;clip-rule:nonzero;display:inline;overflow:visible;visibility:visible;opacity:1;isolation:auto;mix-blend-mode:normal;color-interpolation:sRGB;color-interpolation-filters:linearRGB;solid-color:#000000;solid-opacity:1;vector-effect:none;fill:#000000;fill-opacity:1;fill-rule:nonzero;stroke:none;stroke-width:3.81741452;stroke-linecap:butt;stroke-linejoin:miter;stroke-miterlimit:4;stroke-dasharray:none;stroke-dashoffset:0;stroke-opacity:1;color-rendering:auto;image-rendering:auto;shape-rendering:auto;text-rendering:auto;enable-background:accumulate"
       d="m 233.85721,250.6751 c -4.07395,0 -7.41861,-3.34566 -7.41861,-7.41861 0,-4.07295 3.34466,-7.41861 7.41861,-7.41861 4.07395,0 7.41861,3.34466 7.41861,7.41861 0,4.07395 -3.34466,7.41861 -7.41861,7.41861 z m 0,-3.81648 c 2.01006,0 3.59747,-1.59208 3.59747,-3.60213 0,-2.01005 -1.58741,-3.60213 -3.59747,-3.60213 -2.01005,0 -3.59746,1.59108 -3.59746,3.60213 0,2.01105 1.58741,3.60213 3.59746,3.60213 z"
       id="path150"
       inkscape:connector-curvature="0" />
    <path
       style="fill:none;stroke:#000000;stroke-width:8.01657009;stroke-linecap:round;stroke-linejoin:miter;stroke-miterlimit:4;stroke-dasharray:none;stroke-opacity:1"
       id="path154"
       d="m 233.86651,257.43198 v 35.292"
       inkscape:connector-curvature="0" />
    <path
       style="fill:#ff4500;fill-opacity:1;fill-rule:nonzero;stroke:none;stroke-width:2.38588405"
       id="path158"
       d="m 27.260157,235.33583 c 0,1.88485 -1.529352,3.41181 -3.411814,3.41181 -1.887235,0 -3.4142,-1.52696 -3.4142,-3.41181 0,-1.88723 1.526965,-3.4142 3.4142,-3.4142 1.882462,0 3.411814,1.52697 3.411814,3.4142"
       inkscape:connector-curvature="0" />
    <path
       style="fill:none;stroke:#ff4500;stroke-width:2.62447262;stroke-linecap:butt;stroke-linejoin:miter;stroke-miterlimit:4;stroke-dasharray:none;stroke-opacity:1"
       id="path162"
       d="m 27.260157,235.33583 c 0,1.88485 -1.529352,3.41181 -3.411814,3.41181 -1.887235,0 -3.4142,-1.52696 -3.4142,-3.41181 0,-1.88723 1.526965,-3.4142 3.4142,-3.4142 1.882462,0 3.411814,1.52697 3.411814,3.4142 z"
       inkscape:connector-curvature="0" />
    <path
       style="fill:#ff4500;fill-opacity:1;fill-rule:nonzero;stroke:none;stroke-width:2.38588405"
       id="path166"
       d="m 47.832681,235.33583 c 0,1.88485 -1.526966,3.41181 -3.411814,3.41181 -1.882463,0 -3.411815,-1.52696 -3.411815,-3.41181 0,-1.88723 1.529352,-3.4142 3.411815,-3.4142 1.884848,0 3.411814,1.52697 3.411814,3.4142"
       inkscape:connector-curvature="0" />
    <path
       style="fill:none;stroke:#ff4500;stroke-width:2.62447262;stroke-linecap:butt;stroke-linejoin:miter;stroke-miterlimit:4;stroke-dasharray:none;stroke-opacity:1"
       id="path170"
       d="m 47.832681,235.33583 c 0,1.88485 -1.526966,3.41181 -3.411814,3.41181 -1.882463,0 -3.411815,-1.52696 -3.411815,-3.41181 0,-1.88723 1.529352,-3.4142 3.411815,-3.4142 1.884848,0 3.411814,1.52697 3.411814,3.4142 z"
       inkscape:connector-curvature="0" />
    <path
       style="fill:none;stroke:#000000;stroke-width:2.62447262;stroke-linecap:round;stroke-linejoin:miter;stroke-miterlimit:4;stroke-dasharray:none;stroke-opacity:1"
       id="path174"
       d="m 24.039213,247.82665 c 2.543352,2.54335 6.647073,3.03246 10.049344,3.03246"
       inkscape:connector-curvature="0" />
    <path
       style="fill:none;stroke:#000000;stroke-width:2.62447262;stroke-linecap:round;stroke-linejoin:miter;stroke-miterlimit:4;stroke-dasharray:none;stroke-opacity:1"
       id="path178"
       d="m 44.211863,247.82665 c -2.545738,2.54335 -6.644687,3.03246 -10.049344,3.03246"
       inkscape:connector-curvature="0" />
  </g>
</svg>
